<?xml version="1.0" standalone="no"?><!DOCTYPE svg PUBLIC "-//W3C//DTD SVG 1.1//EN" "http://www.w3.org/Graphics/SVG/1.1/DTD/svg11.dtd"><svg t="1547773140022" class="icon" style="" viewBox="0 0 1024 1024" version="1.1" xmlns="http://www.w3.org/2000/svg" p-id="8026" xmlns:xlink="http://www.w3.org/1999/xlink" width="200" height="200"><defs><style type="text/css"></style></defs><path d="M512.196507 914.019783c41.286413 0 75.06674-36.260783 75.06674-80.580695h-150.13348c0 44.319912 33.780327 80.580695 75.06674 80.580695zM777.725317 647.757897V452.740871c0-59.801581-20.764994-118.585328-58.471925-165.521014-33.18963-41.3123-78.003751-71.75672-127.677588-87.070124v-8.019121c0-44.511712-34.867586-79.378121-79.379297-79.378121-44.511712 0-79.378121 34.867586-79.378121 79.378121v8.019121c-49.673837 15.313403-94.487957 45.757823-127.676411 87.070124-37.706931 46.935687-58.473102 105.718257-58.473102 165.521014v195.017026l-74.45957 74.459569v70.511786h679.977937v-70.511786l-74.461923-74.459569z" p-id="8027" fill="#d81e06"></path></svg>