<?xml version="1.0" standalone="no"?><!DOCTYPE svg PUBLIC "-//W3C//DTD SVG 1.1//EN" "http://www.w3.org/Graphics/SVG/1.1/DTD/svg11.dtd"><svg t="1548041559407" class="icon" style="" viewBox="0 0 1024 1024" version="1.1" xmlns="http://www.w3.org/2000/svg" p-id="1551" xmlns:xlink="http://www.w3.org/1999/xlink" width="200" height="200"><defs><style type="text/css"></style></defs><path d="M513.647362 369.033719l-203.792756-51.108218c-12.605847-3.161758-25.39055 4.494944-28.552308 17.101967-3.161758 12.607023 4.494944 25.39055 17.101967 28.552308L502.198198 414.687994c1.922706 0.482442 3.846589 0.711896 5.742232 0.711896 10.537231 0 20.128406-7.130723 22.808899-17.81504 3.161758-12.605847-4.496121-25.389373-17.101967-28.551131z" p-id="1552"></path><path d="M970.192462 448.638941l-107.096158-164.427873c-0.042361-0.064718-0.091782-0.120022-0.134142-0.18474-0.37654-0.565986-0.773083-1.119029-1.197867-1.649715-0.069425-0.087075-0.140026-0.171796-0.20945-0.256517a23.67141 23.67141 0 0 0-1.264939-1.416731c-0.204744-0.211804-0.417724-0.410664-0.628351-0.613054a23.279573 23.279573 0 0 0-1.639124-1.439088 23.914984 23.914984 0 0 0-0.959-0.717779c-0.244751-0.175326-0.484795-0.354183-0.73543-0.518919a23.278397 23.278397 0 0 0-1.347306-0.815444c-0.18121-0.102372-0.360066-0.211804-0.543629-0.309469-0.56481-0.300055-1.144916-0.577753-1.737967-0.834271-0.225924-0.097665-0.457731-0.178856-0.687185-0.269461a23.951462 23.951462 0 0 0-1.296709-0.475382c-0.263578-0.085898-0.528332-0.161206-0.794264-0.238867-0.235337-0.068248-0.462438-0.149439-0.701305-0.210627l-359.654348-92.232249a23.540798 23.540798 0 0 0-13.520133 0.548336l-267.379739 92.232249c-0.249458 0.085898-0.487148 0.1918-0.731899 0.284758-0.289465 0.110609-0.581283 0.215334-0.867218 0.337709-0.620114 0.265931-1.227284 0.551866-1.815628 0.866042-0.132966 0.070601-0.260048 0.155323-0.391837 0.229454-0.504799 0.282405-0.99783 0.57893-1.476742 0.895459-0.182386 0.120022-0.360066 0.248281-0.540099 0.375363-0.447141 0.312999-0.882515 0.641294-1.303769 0.98371-0.097665 0.078838-0.20239 0.144732-0.298879 0.224747L60.307557 396.895312c-8.739254 7.309579-10.985549 19.831881-5.335099 29.724287a23.538445 23.538445 0 0 0 20.439051 11.863357c2.624012 0 5.285678-0.441258 7.875566-1.361426l70.468248-25.042251c12.246957-4.352565 18.646957-17.807979 14.294392-30.054936a23.432543 23.432543 0 0 0-5.805773-9.034602l30.562089-25.565876v385.760323a23.533738 23.533738 0 0 0 17.809156 22.826549l362.175988 90.828461c0.035301 0.009413 0.071778 0.01412 0.107078 0.023534 0.242397 0.060011 0.488325 0.108255 0.733076 0.16003 0.284758 0.060011 0.570693 0.120022 0.856628 0.169442a24.377422 24.377422 0 0 0 1.603825 0.220041c0.292995 0.030594 0.584813 0.061188 0.878985 0.081191 0.252988 0.016474 0.505975 0.02118 0.758963 0.029417 0.261224 0.008237 0.520096 0.030594 0.782497 0.030594 1.275529 0 2.562824-0.109432 3.848942-0.324765 0.097665-0.016474 0.192977-0.042361 0.290642-0.058835 0.521272-0.094135 1.042545-0.196507 1.56264-0.327119 0.267108-0.067071 0.527156-0.154146 0.79191-0.229454 0.327119-0.094135 0.654238-0.175326 0.980181-0.283581l271.347527-90.828461a23.533738 23.533738 0 0 0 16.062953-22.317044V517.128001l85.696929-33.74738a23.531384 23.531384 0 0 0 11.098511-34.74168zM239.874683 313.831807l244.842655-84.457878 276.616731 70.937746-190.45148 65.312006a23.533738 23.533738 0 0 0-15.90057 22.260562v405.964038l-315.108513-79.025115v-400.991359z m480.263578 213.062696l-67.938371-84.254312c-8.159147-10.117154-22.972458-11.708035-33.093142-3.547711-10.117154 8.159147-11.704505 22.973635-3.547711 33.091966l78.793307 97.714432a23.533738 23.533738 0 0 0 26.9426 7.123663l105.035779-41.362898v180.581431l-224.280052 75.0738V404.693216l231.613164-79.427542 81.344365 124.891193-194.869939 76.737636z" p-id="1553"></path></svg>