<?xml version="1.0" standalone="no"?><!DOCTYPE svg PUBLIC "-//W3C//DTD SVG 1.1//EN" "http://www.w3.org/Graphics/SVG/1.1/DTD/svg11.dtd"><svg t="1545717078348" class="icon" style="" viewBox="0 0 1024 1024" version="1.1" xmlns="http://www.w3.org/2000/svg" p-id="9902" xmlns:xlink="http://www.w3.org/1999/xlink" width="200" height="200"><defs><style type="text/css"></style></defs><path d="M512 854.016q139.989333 0 240.981333-100.992t100.992-240.981333-100.992-240.981333-240.981333-100.992-240.981333 100.992-100.992 240.981333 100.992 240.981333 240.981333 100.992zM512 86.016q176 0 301.013333 125.013333t125.013333 301.013333-125.013333 301.013333-301.013333 125.013333-301.013333-125.013333-125.013333-301.013333 125.013333-301.013333 301.013333-125.013333zM505.984 390.016q-80 0-80 116.010667l0 11.989333q0 116.010667 80 116.010667 29.994667 0 50.005333-16.981333t20.010667-43.008l75.989333 0q0 50.005333-43.989333 88.021333-41.984 36.010667-102.016 36.010667-80 0-121.984-48t-41.984-132.010667l0-11.989333q0-82.005333 40.021333-128 48-54.016 123.989333-54.016 66.005333 0 104.021333 38.016 41.984 41.984 41.984 98.005333l-75.989333 0q0-13.994667-6.016-25.984-9.984-20.010667-13.994667-24.021333-20.010667-20.010667-50.005333-20.010667z" p-id="9903"></path></svg>