<?xml version="1.0" standalone="no"?><!DOCTYPE svg PUBLIC "-//W3C//DTD SVG 1.1//EN" "http://www.w3.org/Graphics/SVG/1.1/DTD/svg11.dtd"><svg t="1547714888118" class="icon" style="" viewBox="0 0 1024 1024" version="1.1" xmlns="http://www.w3.org/2000/svg" p-id="8168" xmlns:xlink="http://www.w3.org/1999/xlink" width="200" height="200"><defs><style type="text/css"></style></defs><path d="M517.469233 781.309128c4.553479 0 9.188238-0.28177 13.851897-0.834473 44.73825-5.36989 82.726658-36.639162 96.748339-79.731946a6.607151 6.607151 0 0 0-3.556446-8.091863c-3.050705-1.421495-6.742617-0.193265-8.469363 2.698492-0.16256 0.274545-17.937565 28.984404-87.13564 38.329783-10.358669 1.390789-20.437373 2.118695-29.992274 2.118695-48.480737-0.032512-70.084928-18.304228-70.283612-18.472206a6.645081 6.645081 0 0 0-8.664434-0.111986 6.683012 6.683012 0 0 0-1.385371 8.597605c21.105674 34.215215 58.978484 55.497899 98.886904 55.497899m0 0z" p-id="8169" fill="#ffffff"></path><path d="M889.543217 352.453022c-0.610502 0-1.166818 0.111986-1.746614 0.111986-40.546014-175.533826-195.46907-306.475706-381.215261-306.475706-190.85418 0-349.333681 138.172176-384.461038 320.970617-34.153804 6.146565-60.148914 36.165932-60.148914 72.469137v145.297713c0 40.723024 32.656448 73.746134 72.978491 73.746134 22.745722 0 42.820045-10.741587 56.175231-27.235983 32.269917 85.349288 97.963925 154.164444 181.100595 190.473067 0.198684-0.431686 4.734101-1.602117 6.627019-4.042319 1.309509-1.690621-0.186041-4.965297 1.072894-4.965297 1.30409 0-3.133791-4.18501-2.11147-3.462523-19.241656-14.325127-83.109576-83.306454-98.164415-186.067698-6.605345-45.231348 27.272108-89.631835 66.728971-96.977729 63.34231-11.792807 126.352276-25.229273 189.692781-36.799916 40.26605-7.344088 67.781998-29.432346 84.608738-66.20878 3.942977-8.597605 9.636181-25.978855 12.24978-51.047375 0.691782-3.728037 3.747905-6.590895 7.665596-6.590894 2.6136 0 4.833443 1.334796 6.303706 3.254807l1.746614-1.085538c24.965565 36.245406 74.475847 116.502962 81.585127 201.127956 8.164112 96.751952 3.608826 163.016725-70.446172 230.80956a4.732295 4.732295 0 0 1-0.305251 0.281771 6.059866 6.059866 0 0 0-1.640047 4.143467c0 2.084377 1.110825 3.86531 2.720167 4.950847 0.610502 0.251065 1.222811 0.585215 1.835119 0.83628 0.49671 0.111986 0.973552 0.274545 1.472068 0.274545 0.502129 0 0.946459-0.16256 1.388983-0.274545 1.054832-0.556316 2.051865-1.197524 3.081411-1.753839 74.893084-41.257665 132.345312-110.161325 158.894932-193.034286 10.748812 15.96698 27.573746 27.456342 47.120653 31.464343-31.354164 142.593802-158.530076 231.839105-316.093824 245.385751-9.442915-23.423054-32.685347-40.056529-59.982742-40.056529-35.65116 0-64.559702 28.236629-64.559703 63.037059s28.903124 63.004547 64.559703 63.004547c28.744177 0 52.81747-18.466788 61.174847-43.840558 182.384816-14.825449 328.591057-123.234742 359.112553-291.675544 26.963244-11.270809 45.897843-37.722893 45.897843-68.602021v-147.017234c0.003612-41.096911-33.543302-74.425273-74.918371-74.425273m-67.283481 42.231218c-47.568596-128.857503-170.834043-220.909671-315.840954-220.909672-144.401827 0-267.224751 91.271882-315.235871 219.296718-2.387822-2.924269-5.189269-5.424077-7.94014-7.956397 27.17999-156.008594 161.44712-274.624832 323.338571-274.624832 161.116582 0 294.966476 117.449421 323.036932 272.374283-2.774353 3.728037-5.33196 7.618634-7.358538 11.8199m0 0z" p-id="8170" fill="#ffffff"></path><path d="M372.236544 821.808181h-0.010837c-0.0289 0.065024-0.0289 0.077667 0.010837 0m0 0z" p-id="8171" fill="#ffffff"></path></svg>