<?xml version="1.0" standalone="no"?><!DOCTYPE svg PUBLIC "-//W3C//DTD SVG 1.1//EN" "http://www.w3.org/Graphics/SVG/1.1/DTD/svg11.dtd"><svg t="1550739133803" class="icon" style="" viewBox="0 0 1024 1024" version="1.1" xmlns="http://www.w3.org/2000/svg" p-id="3342" xmlns:xlink="http://www.w3.org/1999/xlink" width="200" height="200"><defs><style type="text/css"></style></defs><path d="M959.774076 512.214157c0 60.578195-11.869241 119.357235-35.27825 174.703879-22.606509 53.446295-54.964221 101.441-96.174149 142.650929s-89.20581 73.567641-142.650929 96.172973c-55.346645 23.410186-114.125685 35.279426-174.703879 35.279426s-119.357235-11.870417-174.703879-35.279426c-53.446295-22.605332-101.441-54.963045-142.652106-96.172973-41.209928-41.209928-73.567641-89.20581-96.172973-142.650929-23.410186-55.346645-35.279426-114.125685-35.279426-174.703879s11.869241-119.357235 35.279426-174.703879c22.605332-53.446295 54.963045-101.441 96.17415-142.652106 41.209928-41.209928 89.204633-73.567641 142.650929-96.172973 55.346645-23.410186 114.125685-35.279426 174.703879-35.279426s119.357235 11.869241 174.703879 35.279426c53.446295 22.605332 101.441 54.963045 142.650929 96.172973 41.209928 41.209928 73.567641 89.20581 96.174149 142.652106 23.409009 55.346645 35.27825 114.125685 35.27825 174.703879z m-415.526972 0L706.856996 349.605442c9.189925-9.191101 9.189925-24.091487 0-33.281412-9.191101-9.191101-24.092664-9.191101-33.282589 0L510.965692 478.932745 348.355801 316.32403c-9.191101-9.191101-24.091487-9.191101-33.281412 0s-9.191101 24.091487 0 33.281412l162.608715 162.608715-162.608715 162.608715c-9.191101 9.191101-9.191101 24.092664 0 33.282589 4.594962 4.594962 10.617246 6.891855 16.640706 6.891855s12.045744-2.296893 16.640706-6.891855L510.964516 545.496746l162.608714 162.608715c4.594962 4.594962 10.618423 6.891855 16.641883 6.891855s12.045744-2.296893 16.641883-6.891855c9.189925-9.191101 9.189925-24.092664 0-33.282589L544.247104 512.214157z" p-id="3343"></path></svg>