<?xml version="1.0" standalone="no"?><!DOCTYPE svg PUBLIC "-//W3C//DTD SVG 1.1//EN" "http://www.w3.org/Graphics/SVG/1.1/DTD/svg11.dtd"><svg t="1548303693664" class="icon" style="" viewBox="0 0 1024 1024" version="1.1" xmlns="http://www.w3.org/2000/svg" p-id="8389" xmlns:xlink="http://www.w3.org/1999/xlink" width="200" height="200"><defs><style type="text/css"></style></defs><path d="M966.043635 511.846511c0-251.165092-203.617565-454.782657-454.782657-454.782657s-454.782657 203.617565-454.782657 454.782657c0 167.155366 90.19477 313.208816 224.548937 392.250041 42.795048-85.669683 129.79497-144.359385 230.23372-144.359384s187.438672 58.689702 230.23372 144.359384c134.354166-79.041226 224.548937-225.094676 224.548937-392.250041z" fill="#E5E5E5" p-id="8390"></path><path d="M716.993283 793.641215c-0.25013 1.455305-0.579848 2.728696-0.898196 4.058935a431.065741 431.065741 0 0 1-10.835197 38.474613c-6.82174 20.249198-14.075523 37.007939-23.296242 49.571309a68.251507 68.251507 0 0 1-14.371131 14.848654c-10.23261 7.674457-22.750502 11.722023-38.622418 11.699284l-237.009981-0.27287c-16.576828-0.022739-29.458547-4.479609-39.929918-12.813501a69.979681 69.979681 0 0 1-13.006784-13.859502c-9.197979-12.58611-16.417654-29.356221-23.182546-49.628157a432.395981 432.395981 0 0 1-10.755609-38.497352c-0.318348-1.330239-0.636696-2.603631-0.886827-3.945239-42.681352-190.12189-56.12018-410.248065 58.735181-540.622884 32.892156-37.337656 77.3699-67.228246 148.361472-67.148659 56.267984 0.068217 94.788075 19.93085 125.497274 46.058113a287.991118 287.991118 0 0 1 22.705024 21.431633c2.853761 2.990196 5.650675 6.230522 8.311153 9.664132 108.749903 140.539211 94.890401 327.898296 49.184745 530.981491z" fill="#A9929C" p-id="8391"></path><path d="M511.260978 759.737168c-100.43875 0-187.438672 58.689702-230.23372 144.359384a452.633809 452.633809 0 0 0 230.23372 62.532616c84.021096 0 162.698496-22.80735 230.23372-62.532616-42.795048-85.669683-129.79497-144.359385-230.23372-144.359384z" fill="#DD8DA8" p-id="8392"></path><path d="M461.38269 680.673203h99.767946v99.767945h-99.767946z" fill="#FFEEEE" p-id="8393"></path><path d="M511.260978 923.31112l-49.878288-68.251507V680.673203h99.756576V853.172264z" fill="#FFEEEE" p-id="8394"></path><path d="M334.600655 518.861533a194.646977 180.309954 90 1 0 360.619908 0 194.646977 180.309954 90 1 0-360.619908 0Z" fill="#FFF3F3" p-id="8395"></path><path d="M677.825126 480.193638c3.763326-7.799523 20.021806-12.06311 32.198612-10.801088 15.712741 1.614478 32.698873 15.257958 28.07146 49.468983-4.627414 34.211025-26.22959 47.308766-53.277788 47.308766-18.668828-0.01137-6.992283-85.976661-6.992284-85.976661zM345.981591 476.953311c-3.763326-7.799523-20.021806-12.06311-32.198612-10.801088-15.72411 1.614478-32.698873 15.257958-28.07146 49.468984 4.627414 34.211025 26.22959 47.308766 53.277789 47.308766 18.657459 0 6.992283-85.976661 6.992283-85.976662z" fill="#FFF3F3" p-id="8396"></path><path d="M411.538511 808.489868l46.205918 2.148848-19.555654 32.51696 73.072203 80.155444-49.866918-162.436996-2.126109 2.137479z" fill="#CB8BA0" p-id="8397"></path><path d="M610.983445 808.489868l-46.217287 2.148848 19.567024 32.51696-73.072204 80.155444 49.855549-162.436996 2.126109 2.137479z" fill="#CB8BA0" p-id="8398"></path><path d="M598.624727 419.207284c5.389174 15.155632 15.235219 34.961417 30.720568 46.103591-43.852418-8.015544-82.315661-30.913851-110.966968-59.212701 3.68374 15.405763 14.757697 31.686982 31.073025 45.637439a198.228391 198.228391 0 0 1-34.995526-17.03161c-25.18359-15.167002-48.070527-35.541265-65.454594-56.597702-21.533959 52.629723-63.737789 119.3236-95.163271 122.47297-55.301571-86.715683-15.064676-281.214856 144.586777-292.379771 159.640082-11.164914 227.311742 169.417909 189.996824 274.313529-36.246178-5.139044-78.813834-49.241592-89.796835-63.305745z" fill="#A9929C" p-id="8399"></path></svg>