<?xml version="1.0" standalone="no"?><!DOCTYPE svg PUBLIC "-//W3C//DTD SVG 1.1//EN" "http://www.w3.org/Graphics/SVG/1.1/DTD/svg11.dtd"><svg t="1548488809341" class="icon" style="" viewBox="0 0 1024 1024" version="1.1" xmlns="http://www.w3.org/2000/svg" p-id="8414" xmlns:xlink="http://www.w3.org/1999/xlink" width="200" height="200"><defs><style type="text/css"></style></defs><path d="M617.594705 687.953521c0-49.283177 19.673028-100.672624 45.624857-129.32142 23.25604-25.672955 49.230226-54.062879 108.855305-69.615149l-20.12723-28.067513-42.717264-59.568597c-18.03508-25.026953-39.546093-28.256959-63.583453-1.614414l-228.226659 328.060305-131.28178-180.693216c-12.232837-16.754845-26.821401-18.916418-43.125574-1.081375L61.513661 803.559478c-6.950689 10.561942-6.447067 38.754183 22.731237 38.754183h603.312079c-43.06321-38.736532-69.962272-86.758301-69.962272-154.36014z" p-id="8415"></path><path d="M352.974297 271.056885m-85.639272 0a85.639272 85.639272 0 1 0 171.278544 0 85.639272 85.639272 0 1 0-171.278544 0Z" p-id="8416"></path><path d="M683.203236 687.953521c0-77.134179 62.529141-139.66332 139.66332-139.663321S962.529877 610.820518 962.529877 687.953521s-62.529141 139.66332-139.663321 139.66332-139.66332-62.529141-139.66332-139.66332z m200.698069-23.533738h-37.499834v-43.375032c0-12.997683-10.536054-23.533738-23.533738-23.533738s-23.533738 10.536054-23.533738 23.533738v43.375032h-37.501011c-12.997683 0-23.533738 10.536054-23.533738 23.533738s10.536054 23.533738 23.533738 23.533738h37.501011v43.375032c0 12.997683 10.536054 23.533738 23.533738 23.533738s23.533738-10.536054 23.533738-23.533738v-43.375032h37.499834c12.997683 0 23.533738-10.536054 23.533738-23.533738s-10.536054-23.533738-23.533738-23.533738z" p-id="8417"></path></svg>