<?xml version="1.0" standalone="no"?><!DOCTYPE svg PUBLIC "-//W3C//DTD SVG 1.1//EN" "http://www.w3.org/Graphics/SVG/1.1/DTD/svg11.dtd"><svg t="1548215603823" class="icon" style="" viewBox="0 0 1024 1024" version="1.1" xmlns="http://www.w3.org/2000/svg" p-id="8148" xmlns:xlink="http://www.w3.org/1999/xlink" width="200" height="200"><defs><style type="text/css"></style></defs><path d="M859.195587 270.765067L729.832984 138.849053l-0.7672-0.747196a100.214892 100.214892 0 0 0-65.310829-26.830815l-0.353006-0.01059H224.445964c-45.36834 0-82.278654 36.864424-82.278654 82.177459v639.528149c0 45.284795 36.910314 82.128038 82.278654 82.128038H404.78029v-47.067475H224.445964c-19.415334 0-35.211179-15.727597-35.211178-35.060563V193.437911c0-19.360029 15.795845-35.109983 35.211178-35.109983h438.219379a53.161537 53.161537 0 0 1 33.972127 13.894319l128.999007 131.545357 0.125906 0.127083c7.235448 7.267218 13.674278 24.661004 13.674278 33.274351V489.501747h47.067476V337.169038c0.001177-19.129399-10.212466-49.173745-27.30855-66.403971z" p-id="8149"></path><path d="M294.442361 298.117154h255.954109c12.997683 0 23.533738-10.536054 23.533738-23.533738s-10.536054-23.533738-23.533738-23.533738H294.442361c-12.997683 0-23.533738 10.536054-23.533738 23.533738s10.537231 23.533738 23.533738 23.533738zM436.33668 495.572274H294.442361c-12.997683 0-23.533738 10.536054-23.533738 23.533738s10.536054 23.533738 23.533738 23.533738h141.894319c12.997683 0 23.533738-10.536054 23.533737-23.533738s-10.536054-23.533738-23.533737-23.533738zM294.442361 617.834749c-12.997683 0-23.533738 10.536054-23.533738 23.533738s10.536054 23.533738 23.533738 23.533738H348.29932c12.997683 0 23.533738-10.536054 23.533738-23.533738s-10.536054-23.533738-23.533738-23.533738h-53.856959zM294.442361 420.378452h439.47608c12.997683 0 23.533738-10.536054 23.533738-23.533738s-10.536054-23.533738-23.533738-23.533738H294.442361c-12.997683 0-23.533738 10.536054-23.533738 23.533738s10.537231 23.533738 23.533738 23.533738zM818.948189 585.921824c-29.315977-21.813422-66.001544-35.926604-103.35547-40.168561v-2.102739c0-12.997683-10.536054-23.533738-23.533738-23.533738s-23.533738 10.536054-23.533737 23.533738v2.102739c-37.353925 4.241956-74.039493 18.355139-103.35547 40.168561-42.007722 31.256334-65.142563 75.842177-65.142563 125.545431a23.533738 23.533738 0 0 0 39.520206 17.27141c4.359625-4.036036 24.049127-19.103512 40.728663-19.103511 23.933811 0 34.194521 12.386983 35.68656 14.37676 3.933664 7.053061 10.927891 11.078507 19.019967 11.497408 8.212098 0.441258 15.697003-3.980732 20.328443-10.747858 0.064718-0.092958 4.378452-5.759882 13.509542-10.130098-0.176503 1.16139-0.296525 2.34043-0.296525 3.551241v130.311013c0 9.839456-8.005001 17.844457-17.844457 17.844457s-17.844457-8.005001-17.844456-17.844457c0-12.997683-10.536054-23.533738-23.533738-23.533738s-23.533738 10.536054-23.533738 23.533738c0 35.792462 29.11947 64.911932 64.911932 64.911932s64.911932-29.11947 64.911933-64.911932V718.183784c0-1.400257-0.144732-2.764038-0.378894-4.096047 10.45604 4.351388 16.012355 10.485457 16.997243 11.644493 4.400809 6.251737 11.099687 9.972421 18.736385 9.972422l0.262401-0.001177c7.744953-0.085898 14.461482-3.974848 18.771686-10.396029 1.466152-1.805038 13.495422-15.671116 37.139768-15.671116 19.618901 0 34.426328 15.88998 35.528884 17.105498 6.296452 7.656702 16.584225 10.387792 25.930649 7.061298 9.379371-3.337084 15.50991-12.378746 15.50991-22.333518 0.001177-49.705608-23.133664-94.291451-65.141386-125.547784z m-11.82688 76.645854c-23.952638 0-43.06674 8.095606-56.502151 17.389079-13.900202-9.268763-33.748557-17.389079-58.634308-17.389079-23.669057 0-42.431329 7.695532-55.726714 16.727781-13.068285-9.081669-31.745836-16.727781-55.982056-16.727781-7.97676 0-15.697003 1.288472-22.938334 3.347674 24.608053-50.556352 88.448024-74.450156 134.721235-74.450156 45.902556 0 109.091818 23.514911 134.123479 73.241699a86.078176 86.078176 0 0 0-19.061151-2.139217z" p-id="8150"></path></svg>