<?xml version="1.0" standalone="no"?><!DOCTYPE svg PUBLIC "-//W3C//DTD SVG 1.1//EN" "http://www.w3.org/Graphics/SVG/1.1/DTD/svg11.dtd"><svg t="1548215609925" class="icon" style="" viewBox="0 0 1024 1024" version="1.1" xmlns="http://www.w3.org/2000/svg" p-id="8258" xmlns:xlink="http://www.w3.org/1999/xlink" width="200" height="200"><defs><style type="text/css"></style></defs><path d="M943.131017 553.987718a23.443133 23.443133 0 0 1-15.885273-6.176429l-415.264571-380.231072-415.264571 380.231072c-9.586468 8.775731-24.471557 8.120316-33.249641-1.464975s-8.121493-24.471557 1.463798-33.249642l431.156904-394.781982c8.995771-8.235632 22.790072-8.235632 31.785843 0l431.155727 394.781982c9.586468 8.778084 10.241883 23.663173 1.464975 33.249642a23.470197 23.470197 0 0 1-17.363191 7.641404z" p-id="8259"></path><path d="M815.209855 913.933885H602.966133c-12.997683 0-23.533738-10.536054-23.533737-23.533738V685.554256H444.52995v204.845891c0 12.997683-10.536054 23.533738-23.533737 23.533738H208.752491c-12.997683 0-23.533738-10.536054-23.533738-23.533738V530.453981c0-12.997683 10.536054-23.533738 23.533738-23.533738s23.533738 10.536054 23.533738 23.533738v336.412428h165.177422V662.020518c0-12.997683 10.536054-23.533738 23.533738-23.533737h181.969921c12.997683 0 23.533738 10.536054 23.533738 23.533737v204.845891h165.176246V530.453981c0-12.997683 10.536054-23.533738 23.533737-23.533738s23.533738 10.536054 23.533738 23.533738v359.946166c-0.001177 12.997683-10.537231 23.533738-23.534914 23.533738z" p-id="8260"></path></svg>