<?xml version="1.0" standalone="no"?><!DOCTYPE svg PUBLIC "-//W3C//DTD SVG 1.1//EN" "http://www.w3.org/Graphics/SVG/1.1/DTD/svg11.dtd"><svg t="1548303698519" class="icon" style="" viewBox="0 0 1024 1024" version="1.1" xmlns="http://www.w3.org/2000/svg" p-id="8507" xmlns:xlink="http://www.w3.org/1999/xlink" width="200" height="200"><defs><style type="text/css"></style></defs><path d="M511.260978 57.404941c-250.983179 0-454.44157 203.458391-454.44157 454.44157 0 166.882496 89.978749 312.731294 224.037307 391.749781 36.246178-73.538356 105.009315-127.418731 186.983889-141.721646 14.211958-2.478565 28.526242 20.817676 43.420374 20.817676 14.518936 0 29.049242-23.364459 42.920113-21.010959 82.34977 13.995936 151.488103 67.91042 187.938933 141.642059 133.819797-79.086704 223.593893-224.787698 223.593894-391.488281C965.702548 260.863332 762.244157 57.404941 511.260978 57.404941z" fill="#E5E5E5" p-id="8508"></path><path d="M462.155821 679.115572h99.688358v124.735513h-99.688358z" fill="#FFEEEE" p-id="8509"></path><path d="M331.667307 517.417598a194.499173 180.173519 90 1 0 360.347038 0 194.499173 180.173519 90 1 0-360.347038 0Z" fill="#FFF3F3" p-id="8510"></path><path d="M554.169722 761.692733c-13.859501-2.3535-28.401177 21.010959-42.920113 21.010959-14.894132 0-29.208416-23.307611-43.420375-20.817676-81.974574 14.302915-150.726342 68.18329-186.983889 141.721645a452.326831 452.326831 0 0 0 230.404264 62.691789 452.440526 452.440526 0 0 0 230.859046-62.953289c-36.43946-73.743008-105.577794-127.657492-187.938933-141.653428z" fill="#5A5C6A" p-id="8511"></path><path d="M674.630278 478.783812c3.763326-7.799523 19.999067-12.05174 32.175873-10.801088 15.712741 1.614478 32.676134 15.246589 28.06009 49.434874s-26.206851 47.274657-53.23231 47.274658c-18.668828-0.01137-7.003653-85.908444-7.003653-85.908444zM343.025504 475.543485c-3.763326-7.799523-20.010437-12.05174-32.175873-10.801088-15.712741 1.614478-32.676134 15.246589-28.048721 49.434875 4.616044 34.188286 26.206851 47.274657 53.23231 47.274657 18.657459 0 6.992283-85.908444 6.992284-85.908444z" fill="#FFF3F3" p-id="8512"></path><path d="M512 938.159773c-5.50287 0-19.94222-69.388464-47.331505-114.04812-17.224893-28.082829-66.125398-39.429656-63.749159-40.589352a252.438483 252.438483 0 0 1 69.559007-22.091068c13.37061-2.182957 27.53709 23.000633 41.510287 23.000633 15.167002 0 29.583612-24.978937 44.034331-22.420785a251.949592 251.949592 0 0 1 66.568812 21.715872c4.46824 2.182957-41.214678 13.700328-60.758963 41.635352-31.220829 44.648287-44.727874 112.797468-49.83281 112.797468z" fill="#FFFFFF" p-id="8513"></path><path d="M707.636129 283.534247c-104.020163-198.376195-353.184211-12.097219-353.184211-12.097218-101.609815 43.545439-12.995414 232.428046-12.995414 232.428046 0.397935-0.409304 4.161261-1.080109 4.741109-1.466674-1.148326-23.33035 21.306567-74.914073 47.536157-84.350813 36.473569-13.131849 68.569855 24.319503 179.457236-62.248376 42.146983-32.903525 79.666552 70.309399 81.769922 73.561094 5.650675 8.754566 21.875046 27.230112 25.513307 72.583312l5.24137 1.921457s3.956609-21.863676 10.812458-35.234286c9.857414-19.237306 23.59185-52.936701 23.59185-52.936701 25.604264-85.385444-12.483784-132.15984-12.483784-132.159841z" fill="#65667B" p-id="8514"></path><path d="M512 802.748237l0.568478 0.01137v-0.01137a4.741109 4.741109 0 0 0-0.568478 0zM511.260978 966.288081h0.170544V802.748237c-3.535935 0.079587-6.844479 0.693544-6.969545 1.85324l-8.845522 87.443335c4.490979 24.171698 9.209349 50.86744 13.256914 74.22053l2.387609 0.022739z" fill="#9CBEEE" p-id="8515"></path><path d="M512.568478 780.281974h-18.270893c-1.250652 0-1.84187 0.932304-1.31887 2.057892l9.17524 19.93085a3.865653 3.865653 0 0 0 3.217588 2.057891h7.185566l0.011369-24.046633z" fill="#9CBEEE" p-id="8516"></path><path d="M511.431522 802.736868v163.551213c0.886826 0 1.762283-0.022739 2.637739-0.034109 4.252218-24.546894 9.243458-52.777527 13.939089-77.904269l-8.470327-83.759596c-0.136435-1.273391-4.184-1.887348-8.106501-1.853239z" fill="#9CBEEE" p-id="8517"></path><path d="M511.431522 780.281974h18.270893c1.250652 0 1.84187 0.932304 1.31887 2.057892l-9.17524 19.93085a3.865653 3.865653 0 0 1-3.217588 2.057891h-7.185566l-0.011369-24.046633z" fill="#9CBEEE" p-id="8518"></path><path d="M567.347049 826.590218l33.472004-1.694065 32.323677-35.6777a252.51807 252.51807 0 0 0-60.076789-23.500893c-7.935957 11.733393-21.909154 33.778982-30.481807 55.187875-4.900283 12.245023-18.668828 88.63714-28.503503 145.348537a474.019963 474.019963 0 0 0 19.328263-0.51163l56.313462-118.811969-22.375307-20.340155zM449.888059 765.71756a253.006962 253.006962 0 0 0-60.076789 23.500893l32.323677 35.6777 33.472004 1.694065-22.363938 20.340155 56.313463 118.834708a472.973963 472.973963 0 0 0 19.316893 0.500261c-9.823305-56.722767-23.60322-133.114884-28.503503-145.359907-8.572653-21.408894-22.55722-43.465852-30.481807-55.187875z" fill="#535560" p-id="8519"></path><path d="M516.104413 771.766169l46.376462-24.899351 10.960262 17.497763-41.510287 43.852418z" fill="#FFFFFF" p-id="8520"></path><path d="M531.783046 809.058347l-16.28122-37.5082 0.386566-0.204652 46.774396-25.104003 11.392306 18.179937-0.250131 0.2615-42.021917 44.375418z m-15.076046-37.076156l15.360285 35.39346 40.771265-43.056548-10.539588-16.815589-45.591962 24.478677z" fill="#EAECF9" p-id="8521"></path><path d="M507.668195 771.345495l-46.706179-24.262655-10.73287 17.645567 42.112874 43.27257z" fill="#FFFFFF" p-id="8522"></path><path d="M492.512563 808.853695l-0.500261-0.511631-42.374374-43.545439 0.193283-0.306979 10.948892-18.032132 47.490679 24.671959-0.170543 0.397935-15.587676 37.326287z m-41.68083-44.193505l41.362482 42.499439 14.871393-35.598112-45.933048-23.853351-10.300827 16.952024z" fill="#EAECF9" p-id="8523"></path></svg>