<?xml version="1.0" standalone="no"?><!DOCTYPE svg PUBLIC "-//W3C//DTD SVG 1.1//EN" "http://www.w3.org/Graphics/SVG/1.1/DTD/svg11.dtd"><svg t="1547886021185" class="icon" style="" viewBox="0 0 1024 1024" version="1.1" xmlns="http://www.w3.org/2000/svg" p-id="9247" data-spm-anchor-id="a313x.7781069.0.i11" xmlns:xlink="http://www.w3.org/1999/xlink" width="200" height="200"><defs><style type="text/css"></style></defs><path d="M770.999375 891.064975H254.450303c-59.197941 0-107.358559-48.161794-107.358558-107.358558V242.892885c0-59.197941 48.160618-107.358559 107.358558-107.358559h394.203052c12.997683 0 23.533738 10.536054 23.533738 23.533738s-10.536054 23.533738-23.533738 23.533738H254.450303c-33.244935 0-60.291083 27.046148-60.291083 60.291083v540.812355c0 33.244935 27.046148 60.291083 60.291083 60.291083h516.547895c33.244935 0 60.291083-27.046148 60.291083-60.291083V547.117044c0-12.997683 10.536054-23.533738 23.533738-23.533738s23.533738 10.536054 23.533738 23.533738v236.588196c0.001177 59.197941-48.160618 107.359735-107.357382 107.359735z" p-id="9248" fill="#ffffff"></path><path d="M531.250598 668.075749a23.456076 23.456076 0 0 1-16.234749-6.498841L298.492517 455.193087c-9.407612-8.967531-9.765325-23.864387-0.797794-33.271999 8.968707-9.407612 23.864387-9.764148 33.271999-0.797793l199.75672 190.403236 362.743151-368.604229c9.114617-9.264056 24.015003-9.385255 33.280235-0.267108 9.264056 9.11697 9.384078 24.016179 0.267108 33.280235l-378.987313 385.113146a23.463137 23.463137 0 0 1-16.776025 7.027174z" p-id="9249" fill="#ffffff"></path></svg>