<?xml version="1.0" standalone="no"?><!DOCTYPE svg PUBLIC "-//W3C//DTD SVG 1.1//EN" "http://www.w3.org/Graphics/SVG/1.1/DTD/svg11.dtd"><svg t="1547883476820" class="icon" style="" viewBox="0 0 1024 1024" version="1.1" xmlns="http://www.w3.org/2000/svg" p-id="8480" xmlns:xlink="http://www.w3.org/1999/xlink" width="200" height="200"><defs><style type="text/css"></style></defs><path d="M512 951.810259c-59.363854 0-116.963854-11.63155-171.200883-34.572237-52.37551-22.152307-99.407685-53.860489-139.791579-94.24556-40.383894-40.382717-72.092076-87.416069-94.24556-139.791579C83.821291 628.963854 72.189741 571.363854 72.189741 512s11.63155-116.963854 34.572237-171.200883c22.153484-52.37551 53.861666-99.407685 94.24556-139.791579s87.417246-72.092076 139.791579-94.24556C395.036146 83.821291 452.636146 72.189741 512 72.189741s116.963854 11.63155 171.200883 34.572237c52.37551 22.153484 99.407685 53.861666 139.791579 94.24556 40.383894 40.383894 72.093252 87.417246 94.24556 139.791579 22.940688 54.237029 34.572238 111.837029 34.572237 171.200883s-11.63155 116.963854-34.572237 171.200883c-22.152307 52.37551-53.860489 99.407685-94.24556 139.791579-40.382717 40.383894-87.416069 72.093252-139.791579 94.24556-54.237029 22.940688-111.837029 34.572238-171.200883 34.572237z m0-832.553043c-216.559809 0-392.742784 176.184151-392.742784 392.742784 0 216.558632 176.184151 392.742784 392.742784 392.742784 216.558632 0 392.742784-176.184151 392.742784-392.742784 0-216.558632-176.184151-392.742784-392.742784-392.742784z" p-id="8481" fill="#ffffff"></path><path d="M694.389998 669.837249a23.427836 23.427836 0 0 1-13.969627-4.609082L488.466262 523.356205V246.830079c0-12.997683 10.536054-23.533738 23.533738-23.533738s23.533738 10.536054 23.533738 23.533738v252.785291l172.862364 127.761133c10.45251 7.724949 12.663504 22.461776 4.937378 32.914286-4.613789 6.243501-11.732745 9.546461-18.943482 9.54646z" p-id="8482" fill="#ffffff"></path></svg>