<?xml version="1.0" standalone="no"?><!DOCTYPE svg PUBLIC "-//W3C//DTD SVG 1.1//EN" "http://www.w3.org/Graphics/SVG/1.1/DTD/svg11.dtd"><svg t="1547883371778" class="icon" style="" viewBox="0 0 1024 1024" version="1.1" xmlns="http://www.w3.org/2000/svg" p-id="8368" xmlns:xlink="http://www.w3.org/1999/xlink" width="200" height="200"><defs><style type="text/css"></style></defs><path d="M924.954734 167.356646c0.084721-0.601287 0.149439-1.202574 0.187094-1.802684 0.00353-0.060011 0.012944-0.120022 0.016473-0.18121a23.792609 23.792609 0 0 0 0.016474-2.027431c-0.005883-0.180033-0.01765-0.35889-0.028241-0.538923a23.06424 23.06424 0 0 0-0.137672-1.564993c-0.02118-0.180033-0.040007-0.360066-0.065895-0.538923a23.976172 23.976172 0 0 0-0.360066-1.945063c-0.034124-0.149439-0.081191-0.296525-0.118845-0.444788a23.48667 23.48667 0 0 0-0.669535-2.196874c-0.152969-0.427137-0.321236-0.847215-0.500092-1.263762-0.089428-0.208274-0.168266-0.420077-0.263578-0.625998-0.258871-0.562456-0.545983-1.111969-0.848391-1.652068-0.127082-0.227101-0.264755-0.449494-0.400074-0.673065-0.235337-0.389483-0.482442-0.77073-0.740136-1.146093-0.131789-0.1918-0.260048-0.385953-0.398896-0.5754a23.669057 23.669057 0 0 0-1.250819-1.56617c-0.101195-0.116492-0.211804-0.227101-0.316528-0.342416a23.504321 23.504321 0 0 0-1.222578-1.248465c-0.080015-0.076485-0.148263-0.160029-0.229454-0.235337-0.057658-0.052951-0.121199-0.096488-0.180033-0.149439a23.580805 23.580805 0 0 0-1.593234-1.333187c-0.009413-0.00706-0.020004-0.012944-0.029417-0.02118-0.095312-0.071778-0.196507-0.134142-0.292995-0.204743a24.340945 24.340945 0 0 0-2.074499-1.352014 23.82791 23.82791 0 0 0-1.241405-0.668358c-0.200037-0.101195-0.396543-0.20945-0.598934-0.304762a23.930281 23.930281 0 0 0-1.736789-0.723662c-0.238867-0.089428-0.480088-0.165913-0.72131-0.247104a23.853797 23.853797 0 0 0-1.259055-0.384777c-0.237691-0.064718-0.473028-0.131789-0.711895-0.189447-0.623644-0.150616-1.250818-0.282405-1.882699-0.381246-0.125905-0.020004-0.251811-0.02824-0.37654-0.045891a23.620813 23.620813 0 0 0-3.89601-0.217687c-0.137672 0.00353-0.274168 0-0.410664 0.00706a23.757308 23.757308 0 0 0-1.998014 0.175326c-0.16709 0.02118-0.331826 0.052951-0.498916 0.077662-0.505975 0.076485-1.008421 0.169443-1.509689 0.280051-0.211804 0.045891-0.423607 0.092958-0.635411 0.144733-0.537746 0.134142-1.070785 0.287112-1.600294 0.458908-0.180033 0.058834-0.360066 0.116492-0.538923 0.178856-0.537746 0.189447-1.068432 0.400074-1.595587 0.630704-0.255341 0.111785-0.507152 0.232984-0.76014 0.354183-0.175326 0.084721-0.354183 0.157676-0.528332 0.247104L112.350064 540.887663a23.534915 23.534915 0 0 0 3.121751 43.235007l227.462989 77.430704c12.301085 4.192535 25.674131-2.388674 29.86196-14.693289 4.189005-12.304615-2.391028-25.674131-14.694466-29.86196l-174.800367-59.50388 611.551241-312.422136-361.445266 391.484905a23.536091 23.536091 0 0 0-6.242324 15.964111v207.345174c0 12.997683 10.536054 23.533738 23.533738 23.533738s23.533738-10.536054 23.533738-23.533738v-198.142306l388.07722-420.331384L760.492738 753.972716l-199.3237-67.851297c-12.308145-4.192535-25.674131 2.388674-29.861959 14.69329-4.189005 12.304615 2.389851 25.674131 14.693289 29.86196l224.756609 76.509358a23.527854 23.527854 0 0 0 19.344733-1.894466 23.531384 23.531384 0 0 0 11.322081-15.799375l123.317963-620.82824c0.038831-0.197683 0.062364-0.395367 0.096488-0.591874 0.041184-0.238867 0.082368-0.476558 0.116492-0.715426z" p-id="8369" fill="#ffffff"></path></svg>