<?xml version="1.0" standalone="no"?><!DOCTYPE svg PUBLIC "-//W3C//DTD SVG 1.1//EN" "http://www.w3.org/Graphics/SVG/1.1/DTD/svg11.dtd"><svg t="1548303688863" class="icon" style="" viewBox="0 0 1024 1024" version="1.1" xmlns="http://www.w3.org/2000/svg" p-id="8271" xmlns:xlink="http://www.w3.org/1999/xlink" width="200" height="200"><defs><style type="text/css"></style></defs><path d="M966.043635 511.846511c0-251.165092-203.617565-454.782657-454.782657-454.782657s-454.782657 203.617565-454.782657 454.782657c0 167.519192 90.592705 313.856881 225.435763 392.773042 30.038394-58.962571 81.110487-104.918359 143.051885-127.373253 12.188175 9.027436 32.107656 24.91072 43.511331 40.043613 27.412025 36.382613 37.75833 87.31827 43.27257 87.31827 5.104935 0 20.567546-51.91344 48.741331-87.511553 11.483262-14.518936 27.753112-31.084395 36.735069-39.964026 62.089202 22.409415 113.297729 68.422051 143.381602 127.486949 134.843058-78.916161 225.435763-225.25385 225.435763-392.773042z" fill="#EAECF9" p-id="8272"></path><path d="M966.043635 511.846511c0-251.165092-203.617565-454.782657-454.782657-454.782657s-454.782657 203.617565-454.782657 454.782657c0 167.507822 90.581336 313.845512 225.413024 392.761672 27.457503-53.925854 72.526464-96.948293 127.395992-121.097252 19.953589 38.053939 60.542941 64.749681 102.019119 64.749681 41.862744 0 82.474835-26.650264 102.155555-64.647355 54.767201 24.160329 99.745206 67.148659 127.1686 120.994926C875.462299 825.692022 966.043635 679.354333 966.043635 511.846511z" fill="#E5E5E5" p-id="8273"></path><path d="M436.653883 636.491068c23.660068-0.193283 108.920446 12.893088 159.412691 8.265674 35.006895-3.217587 75.584878-18.236785 92.423206-47.047266 11.903936-20.374263 23.523633-51.606462 29.151568-70.150224 20.419741-67.216877 5.718892-117.947882-12.665697-167.621518-34.495265-93.173597-171.180192-121.063143-284.5234-117.913774-56.63181 1.569-129.328818 118.243491-143.222428 207.324044-5.275479 33.801721-8.242936 64.044768 1.523522 87.159096 19.464698 46.080853 62.600833 76.31253 84.998878 90.183401 8.822784 5.457392 42.090135 10.050697 72.90166 9.800567z" fill="#776F6E" p-id="8274"></path><path d="M461.38269 683.026703h99.767946v124.82647h-99.767946z" fill="#FFEEEE" p-id="8275"></path><path d="M331.31485 521.772142a194.646977 180.309954 90 1 0 360.619908 0 194.646977 180.309954 90 1 0-360.619908 0Z" fill="#FFF3F3" p-id="8276"></path><path d="M673.618387 483.104247c3.763326-7.799523 20.021806-12.06311 32.198612-10.801088 15.72411 1.614478 32.698873 15.257958 28.071459 49.468983-4.627414 34.211025-26.22959 47.308766-53.277788 47.308766-18.668828 0-6.992283-85.976661-6.992283-85.976661zM341.774851 479.863921c-3.763326-7.799523-20.021806-12.06311-32.198612-10.801089-15.72411 1.614478-32.698873 15.257958-28.071459 49.468984 4.627414 34.211025 26.22959 47.308766 53.266419 47.308766 18.680198 0 7.003653-85.976661 7.003652-85.976661z" fill="#FFF3F3" p-id="8277"></path><path d="M578.000333 230.120024c-63.555876-23.978416-112.854316-10.369045-152.772864 19.294155-183.607128 42.374374-76.062399 291.618009-76.062399 291.618009s1.102848 2.615 1.944196-2.842392c1.352978-8.765936-11.915306-97.357597 51.083461-146.440015 27.093677-21.113285 117.277078 67.728507 201.571044 62.714528 63.72642-3.797435 63.45355 86.567879 63.45355 86.567879s19.783046-51.026614 31.141242-101.075446c7.265153-32.039438 9.084284-64.624616 6.617088-80.030378-6.344218-39.463765-65.329529-106.555577-126.975318-129.80634z" fill="#776F6E" p-id="8278"></path><path d="M597.22627 777.132604c-8.981957 8.879631-31.686982 2.228435-43.181613 16.747372-28.185155 35.598112-37.201221 110.716838-42.306157 110.716837-5.51424 0-13.461567-66.35279-40.873591-102.735402-11.403675-15.132893-33.710764-15.587676-45.89894-24.615111-61.941398 22.454894-113.02486 68.410681-143.051885 127.373253 67.330572 39.406917 145.700994 62.009615 229.346894 62.009615s162.004952-22.614068 229.346894-62.009615c-30.083873-59.064898-81.2924-105.077533-143.381602-127.486949z" fill="#E9C393" p-id="8279"></path><path d="M468.4773 817.289913c27.412025 36.382613 43.136135 122.370643 43.136135 122.370643s13.791284-77.585921 41.976439-113.184033c4.832066-6.105457-1.955565-24.13759 5.082196-32.164504 9.69824-11.062588 33.346938-12.017632 38.5542-17.168045-13.768545-4.968501-35.075112-12.904458-35.075113-12.904458s-33.642547 12.904458-50.787853 12.904458c-16.065197 0-50.264853-12.904458-50.264853-12.904458s-22.238872 7.981436-36.121112 13.018153c8.151979 6.03724 37.371765 8.424849 47.581635 18.316372 5.048087 4.888914-7.85637 16.701893-4.081674 21.715872z" fill="#FFFFFF" p-id="8280"></path><path d="M511.624804 939.649187l66.398268-121.324644-16.224371-13.541153 24.274024-1.125587 23.444046-23.762394c-13.609371-6.844479-32.005329-12.131327-47.365614-15.655893-5.753001 7.810892-12.097219 22.500372-18.316371 36.769178-5.76437 13.188697-32.209982 138.640493-32.209982 138.640493zM511.624804 939.649187l-66.398268-121.324644 16.224372-13.541153-24.274025-1.125587-23.444046-23.762394c13.609371-6.844479 32.005329-12.131327 47.365614-15.655893 5.753001 7.810892 12.097219 22.500372 18.316372 36.769178 5.76437 13.188697 32.209982 138.640493 32.209981 138.640493z" fill="#DBB48A" p-id="8281"></path></svg>