<?xml version="1.0" standalone="no"?><!DOCTYPE svg PUBLIC "-//W3C//DTD SVG 1.1//EN" "http://www.w3.org/Graphics/SVG/1.1/DTD/svg11.dtd"><svg t="1548053871824" class="icon" style="" viewBox="0 0 1024 1024" version="1.1" xmlns="http://www.w3.org/2000/svg" p-id="8055" xmlns:xlink="http://www.w3.org/1999/xlink" width="200" height="200"><defs><style type="text/css"></style></defs><path d="M826.240118 636.129877l-290.787572-377.551756c-13.433058-17.440853-35.413569-17.440853-48.846626 0l-290.787571 377.551756c-13.433058 17.440853-6.411767 31.710535 15.602868 31.710535h158.780953v203.564479c0 22.014635 18.011546 40.026181 40.026181 40.026181h201.602942c22.014635 0 40.026181-18.011546 40.026181-40.026181V667.840412h158.779775c22.014635 0 29.035926-14.269682 15.602869-31.710535z" p-id="8056"></path><path d="M673.424968 204.938849h-324.789116c-25.99419 0-47.067476-21.073286-47.067475-47.067476s21.073286-47.067476 47.067475-47.067475h324.789116c25.995367 0 47.067476 21.073286 47.067475 47.067475s-21.073286 47.067476-47.067475 47.067476z" p-id="8057"></path></svg>